<svg id="Layer_1" data-name="Layer 1" xmlns="http://www.w3.org/2000/svg" viewBox="0 0 274.42 400"><title>logo</title><path d="M331.42,22v22q0,22-24.29,22H297v216.9q0,53-31.08,85.07T182.8,400q-48,0-77.42-23.66T76,313.8q0-23.08,13.28-37.18T124,262.54q21.48,0,34.48,11.54t13,31.27a51.06,51.06,0,0,1-5.65,23.1q6.21,5.64,18.65,5.64,15.81,0,24.58-11.84T217.84,289V65.92H183.93q-24.3,0-24.29-22V22q0-22,24.29-22h123.2Q331.42,0,331.42,22Z" transform="translate(-57)"/><circle cx="34.11" cy="34.37" r="34.11"/><path d="M-112,22" transform="translate(-57)"/></svg>